<?xml version="1.0" encoding="utf-8"?>
<!-- Generator: Adobe Illustrator 28.0.0, SVG Export Plug-In . SVG Version: 6.00 Build 0)  -->
<svg version="1.1" id="Layer_1" xmlns="http://www.w3.org/2000/svg" xmlns:xlink="http://www.w3.org/1999/xlink" x="0px" y="0px"
	 viewBox="0 0 698 595.28" style="enable-background:new 0 0 698 595.28;" xml:space="preserve">
<style type="text/css">
	.st0{fill:#9F2273;}
	.st1{fill:#7AB542;}
</style>
<g>
	<path class="st0" d="M319.59,30.82c16.5,0.54,29.26,13.25,28.81,29.78c-0.46,16.5-13.09,28.39-29.17,28.33
		c-16.01-0.06-29.23-12.62-28.81-29.9C290.8,43.7,302.7,31.31,319.59,30.82z"/>
	<path class="st0" d="M612.63,173.03c-0.4,15.65-12.16,29.17-29.47,28.99c-16.11-0.17-28.97-12.62-28.61-29.54
		c0.35-16.93,13.26-28.54,29.17-28.48C600.06,144.07,612.25,156.96,612.63,173.03z"/>
	<path class="st0" d="M85.27,173.03c0.4-15.73,12.17-28.84,28.74-29.02c15.95-0.17,28.73,11.43,29.33,27.95
		c0.63,17.16-12.47,30.22-29.31,30.06C97.47,201.87,85.72,188.91,85.27,173.03z"/>
	<path class="st0" d="M147.86,216.05c0.41-3.49,0.63-6.72,1.18-9.88c1.85-10.55,3.56-21.14,5.83-31.61
		c2.45-11.34,5.88-22.44,11.58-32.65c3.91-7.01,8.47-13.55,14.82-18.67c4.86-3.92,10.19-4.81,15.96-2.49
		c3.29,1.32,4.8,4.27,5.88,7.38c2.31,6.68,1.35,13.29-0.9,19.76c-4.19,12.02-11.2,22.43-18.81,32.5
		c-9.92,13.12-22.03,24.07-34.31,34.86C148.8,215.5,148.44,215.67,147.86,216.05z"/>
	<path class="st0" d="M550.14,216.33c-2.43-2.07-4.57-3.73-6.52-5.59c-6.41-6.11-13.07-12-19.06-18.5
		c-11.72-12.71-21.97-26.49-28.31-42.79c-2.45-6.3-3.69-12.82-1.97-19.56c0.41-1.61,1.12-3.16,1.81-4.68
		c2.68-5.92,12.03-6.95,16.8-4.35c4.64,2.53,8.17,6.21,11.42,10.26c7.83,9.76,12.57,21.02,16,32.91c3.74,12.94,6.39,26.1,8.13,39.45
		C548.98,207.59,549.53,211.71,550.14,216.33z"/>
	<path class="st0" d="M326.86,113.14c2.98-3.75,5.73-7.25,8.52-10.71c8.51-10.58,17.63-20.59,27.66-29.75
		c9.63-8.8,20.13-16.24,32.76-20.09c3.45-1.05,7.13-1.75,10.72-1.84c8.35-0.22,16.46,7.36,12.4,17.89
		c-2.79,7.24-7.83,12.49-13.91,16.92c-9.54,6.95-20.16,11.8-31.11,16.04c-14.89,5.77-30.45,8.83-46.09,11.59
		C327.65,113.21,327.47,113.17,326.86,113.14z"/>
	<path class="st0" d="M321.55,113.97c-5.9,0-11.8,0.04-17.7-0.01c-14.13-0.1-28.11-1.51-41.85-4.91
		c-9.81-2.43-19.47-5.3-28.13-10.72c-5.3-3.32-9.49-7.58-12.11-13.47c-3.5-7.89,3.23-15.46,9.08-16.88
		c5.56-1.35,11.03-0.68,16.55,0.26c12.41,2.13,23.37,7.7,33.9,14.26c14.01,8.72,26.89,18.95,39.24,29.85
		c0.42,0.37,0.84,0.74,1.26,1.12C321.72,113.64,321.63,113.8,321.55,113.97z"/>
	<path class="st0" d="M144.04,218.82c-3.36,2.02-6.7,4.07-10.09,6.04c-11.33,6.58-22.95,12.59-35.11,17.51
		c-8.83,3.57-17.8,6.68-27.34,7.72c-6.47,0.7-12.93,0.94-19.4-0.26c-6.62-1.23-11.4-4.58-13.2-11.23c-0.46-1.71-0.24-3.84,0.33-5.56
		c2.04-6.17,6.79-9.94,12.31-12.82c7.37-3.84,15.4-5.35,23.54-6.37c16.62-2.08,33.19-1.51,49.7,1.21
		c6.39,1.05,12.79,2.13,19.18,3.19C143.99,218.44,144.02,218.63,144.04,218.82z"/>
	<path class="st0" d="M553.64,218.44c4.5-0.84,8.67-1.74,12.88-2.38c9.9-1.51,19.8-3.14,29.85-3.35c13.48-0.28,26.9,0.24,40.02,3.72
		c6.28,1.66,12.21,4.11,16.97,8.71c1.56,1.51,2.91,3.3,4.12,5.12c4.07,6.12,0.8,12.72-3.65,16.26c-3.25,2.59-7.21,3.35-11.21,3.77
		c-11.68,1.23-22.98-0.56-34.03-4.35c-19.12-6.57-36.77-16.11-53.93-26.65C554.39,219.11,554.16,218.86,553.64,218.44z"/>
	<g>
		<path d="M478.79,521.8c-18.22,7.47-36.72,13.27-55.94,17.49c-0.57-2.19-1.15-4.24-1.61-6.31c-0.07-0.3,0.27-0.88,0.57-1.06
			c7.3-4.25,10.88-13.87,5.75-24.18c-1.99-4-4.44-7.61-8.56-9.75c-4.29-2.23-8.36-1.43-12.11,1.19c-3.52,2.47-4.52,6.13-3.71,10.16
			c2.05,10.22,4.28,20.4,6.44,30.59c0.12,0.56,0.21,1.13,0.37,1.95c-3.96,0.65-7.8,1.27-11.76,1.92c-0.9-5.17-1.77-10.12-2.62-15.08
			c-0.96-5.59-1.82-11.21-2.88-16.78c-0.93-4.93-4.25-7.68-8.9-8.97c-10.67-2.94-21.03,3.09-23.79,13.82
			c-0.04,0.16-0.04,0.33-0.03,0.23c2.98-0.67,6-1.59,9.07-2c11.86-1.58,21.81,10.82,17.8,22.1c-1.36,3.82-4.14,6.44-7.71,8.1
			c-5.85,2.72-11.98,3.2-18.1,1.07c-6.7-2.33-10.44-7.44-11.59-14.23c-1.73-10.24,0.31-19.76,6.87-27.98
			c5.57-6.98,13.03-10.34,21.94-10.56c6.28-0.16,12.24,0.82,17.4,4.7c9.54-13.62,28.44-14.01,38.53-0.8
			c4.88,6.4,7.89,13.52,7.24,21.74c-0.18,2.26-1.02,4.46-1.61,6.89c7.85-2.55,15.9-5.17,24.13-7.85
			c-5.89-13.35-11.64-26.42-17.49-39.67c2.97-1.17,5.79-2.32,8.66-3.33c0.29-0.1,1.08,0.63,1.33,1.14
			c3.76,7.57,7.47,15.17,11.19,22.77C471.34,506.61,475.01,514.09,478.79,521.8z M368.32,538.79c4.8-0.01,8.32-2.99,8.32-7.03
			c0-4.46-3.53-8.27-7.68-8.31c-4.58-0.04-8.54,3.66-8.47,7.9C360.56,535.45,364.08,538.8,368.32,538.79z"/>
		<path d="M142.85,447.21c-3.44,2.25-6.28,4.5-9.46,6.09c-8.83,4.42-16.92,2.42-24.15-3.68c-2.63-2.22-5-4.84-7.13-7.56
			c-3-3.83-3.67-6.61-3.62-11.87c-7.85-0.87-12.58-6.03-16.04-12.41c-5.59-10.29,0.57-21.21,12.27-22.34
			c7.03-0.68,12.65,2.18,17.53,6.84c2.21,2.11,4.14,4.53,5.92,6.51c3.71-1.17,7.19-2.74,10.83-3.33c8.56-1.39,16.29,0.65,22.3,7.24
			c7.08,7.76,6.91,17.54-0.24,25.58c-0.65,0.73-1.34,1.44-2.14,2.31c1.61,1.43,3.2,2.82,4.76,4.24c2.78,2.56,5.44,5.21,7.06,8.72
			c1.62,3.51,1.47,6.97-0.22,10.38c-5.32,10.74-18.57,13.87-28.03,6.49c-2.66-2.08-4.93-4.65-7.54-7.16
			c2.71-2.49,5.08-4.67,7.38-6.78c1.33,1.64,2.42,3.35,3.86,4.68c4.33,3.99,9.65,3.31,12.79-1.46c1.28-1.95,1.53-4.04,0.08-5.84
			C147.11,451.45,144.83,449.3,142.85,447.21z M117.58,422.68c-2.11,2.31-4.31,4.37-6.08,6.75c-2.05,2.75-1.98,5.82-0.24,8.81
			c4.72,8.09,16.76,8.37,21.97,0.58C128.14,433.58,123.07,428.34,117.58,422.68z M140.32,432.83c2.54-2.25,4.2-4.63,4.78-7.65
			c0.72-3.76-0.89-7.37-4.07-9.24c-4.19-2.47-11.35-1.56-15.08,2.07C130.69,422.91,135.44,427.81,140.32,432.83z M110.12,413.62
			c-1.78-1.84-3.43-3.8-5.34-5.45c-3.14-2.71-6.04-2.81-9.54-0.66c-3.69,2.26-4.75,5.91-2.64,9.12c2.63,4,7.39,5.24,10.78,2.66
			C105.61,417.6,107.68,415.68,110.12,413.62z"/>
		<path d="M543.48,429.29c-9.99,5.54-11.23,16.19-4.68,23.85c2.22,2.59,4.71,4.95,7.07,7.42c6.28,6.58,6.89,15.52,1.16,22.59
			c-6.08,7.5-13.9,11.89-23.81,11.44c-7.17-0.32-12.76-4.01-17.14-9.44c-8.54-10.57-10.04-22.42-6.06-35.21
			c0.47-1.51,1.24-1.85,2.66-1.48c1.23,0.32,2.5,0.48,3.75,0.7c1.25,0.22,2.5,0.44,3.75,0.66c-0.58,2.57-1.26,5.02-1.67,7.51
			c-1.64,9.85,3.29,20.68,11.49,25.44c5.94,3.45,13.46,1.96,17.63-3.5c2.33-3.05,2.28-6.81-0.52-10.61
			c-2.02-2.74-4.26-5.36-6.63-7.81c-9.18-9.49-8.65-24.7,1.66-34.38c15.12-14.21,35.24-13.55,50.26-3.57
			c10.7,7.11,11.73,20.57,2.76,30.05c-10.13,10.71-28.65,9.08-37.22-5.33c-3-5.05-4.34-10.57-4.47-16.41
			C543.47,430.61,543.48,430,543.48,429.29z M553.32,428.83c0.32,2,0.52,4.02,0.98,5.98c1.74,7.42,5.84,12.79,13.5,14.8
			c4.79,1.26,8.55-0.23,10.95-4.13c2.18-3.54,1.7-7.48-1.63-11.12c-5.59-6.11-12.82-8.44-20.89-8.57
			C553.3,425.75,553.26,425.85,553.32,428.83z"/>
		<path d="M250.38,494.53c-3.1-5.59-7.36-9.74-12.88-12.55c-3.58-1.83-7.34-3.11-11.36-3.59c-3.6-0.42-6.77,1.2-7.9,4.07
			c-0.89,2.25-0.12,4.71,2.36,6.04c2.74,1.47,5.65,2.65,8.57,3.74c5,1.88,9.99,3.71,14.1,7.3c6.83,5.95,7.33,15.1,1.08,21.09
			c-3.45,3.31-7.84,4.45-12.36,4.15c-13.75-0.91-25.62-5.92-34.48-16.92c-0.91-1.12-1.66-2.37-2.45-3.59
			c-0.78-1.21-1.5-2.47-2.36-3.9c3.08-1.38,6.06-2.71,8.75-3.91c2.41,3.24,4.43,6.59,7.06,9.37c5.92,6.25,13.54,9.18,21.98,9.93
			c4.04,0.36,6.48-1.59,7.2-5c0.43-2.02-0.35-3.74-1.91-4.69c-2.94-1.8-6.04-3.36-9.18-4.8c-3.26-1.5-6.7-2.59-9.93-4.13
			c-4.69-2.25-8.3-5.56-9.11-11.04c-0.78-5.29,1.54-9.39,5.48-12.6c4.9-3.99,10.7-4.48,16.65-3.47c9.63,1.64,17.83,6.05,24.34,13.37
			c1.37,1.53,2.34,3.43,3.4,5.22c0.2,0.34,0.09,1.25-0.18,1.44C255.04,491.59,252.73,493.02,250.38,494.53z"/>
		<path d="M632.13,394.53c-2.62,3.82-5.06,7.39-7.6,11.1c-4.03-2.16-7.94-4.26-11.85-6.37c-12.75-6.86-25.47-13.77-38.27-20.52
			c-2.68-1.42-5.62-2.47-8.55-3.27c-3.15-0.86-6.15,0.68-8.04,3.66c4-1.22,7.75-0.75,11.35,1.09c5.6,2.87,7.3,9,3.87,14.27
			c-3.11,4.77-7.42,7.58-13.28,6.82c-5.81-0.76-9.91-4.17-12.06-9.55c-3.19-7.97,0.01-16.77,7.88-22.01
			c7.67-5.11,15.69-4.61,23.63-0.82c14.63,6.98,29.17,14.13,43.76,21.21C625.93,391.57,628.9,392.98,632.13,394.53z M559.97,385.88
			c-1.06,0.46-2.29,0.89-3.39,1.53c-0.34,0.2-0.59,0.99-0.51,1.44c0.46,2.4,2.7,4.45,5.1,4.81c1.89,0.28,3.63-0.74,4.26-2.49
			c0.56-1.57-0.14-3.26-1.91-4.14C562.51,386.53,561.36,386.32,559.97,385.88z"/>
		<path d="M173.62,497.28c1.92,2.4,3.58,4.97,3.82,8.17c0.6,7.96-5.45,15.26-13.43,15.67c-8.89,0.45-16.06-3.24-21.06-10.55
			c-4.45-6.52-2.61-14.21,4.11-18.56c5.06-3.28,10.5-3.68,16.12-1.67c1.1,0.4,1.99,0.59,3.04-0.18c7.03-5.2,13.32-11.16,18.45-18.24
			c1.4-1.93,2.38-4.25,3.13-6.53c1.61-4.9,0.73-8.01-2.74-11.52c2.17-2.38,4.34-4.76,6.64-7.28c4.4,4.81,7.08,9.94,6.77,16.29
			c-0.26,5.38-2.52,10.04-5.5,14.41c-5.23,7.66-11.14,14.67-19.1,19.68C173.78,497.01,173.73,497.13,173.62,497.28z M159.9,512.01
			c2.79-0.09,4.94-1.14,6.11-3.66c1.14-2.45,0.64-4.74-1.02-6.81c-2.27-2.83-6.35-3.96-9.73-2.69c-4.39,1.65-5.6,6.58-2.39,10
			C154.77,510.88,157.2,511.88,159.9,512.01z"/>
		<path d="M267.74,493.1c1.42-2.99,2.75-5.79,4.14-8.73c6.96,3.88,11.5,9.25,12.35,17.28c0.72,6.83-1.35,13.19-3.35,19.54
			c-1.82,5.79-4.5,11.16-8.26,16.1c0.33,0.28,0.61,0.54,0.92,0.75c5.42,3.54,7.61,8.57,6.41,14.74
			c-1.21,6.21-5.02,10.12-11.44,11.25c-6.66,1.17-12.97,0.04-18.49-4.02c-9.74-7.16-5.97-18.28,0.6-22.78
			c3.22-2.21,6.78-3.15,10.68-3.01c0.6,0.02,1.49-0.2,1.77-0.63c5.46-8.33,10.16-17.03,11.44-27.08c0.32-2.49-0.2-5.21-0.85-7.68
			C272.91,496.01,270.79,494.13,267.74,493.1z M262.42,555.96c5.31,0.06,8.55-4.09,6.72-8.61c-1.69-4.15-7.49-5.83-11.52-3.34
			c-3.66,2.26-4.26,6.9-1.23,9.74C258.07,555.33,260.15,555.91,262.42,555.96z"/>
		<path d="M320.62,546.83c-6.04-0.17-11.36-1.1-16.22-3.88c-7.34-4.19-10.58-11.83-8.51-20.01c2.34-9.23,9.59-15.47,19.09-16.49
			c6.98-0.75,13.55,0.32,19.29,4.58c6.47,4.8,9.42,13.6,7.37,21.42c-1.95,7.46-8.57,12.97-16.87,14.01
			C323.21,546.66,321.65,546.74,320.62,546.83z M318.89,538.5c7.55,0.01,12.75-4.71,12.82-11.66c0.07-6.74-5.49-12.13-12.53-12.17
			c-7.5-0.04-13.13,5.29-13.22,12.49C305.88,533.78,311.25,538.49,318.89,538.5z"/>
		<path d="M476.25,465.64c2.86,7.66,5.56,15.11,8.43,22.49c2.56,6.58,5.13,13.19,9.13,19.07c2.44,3.59,5.48,6.6,10.18,6.73
			c4.24,0.12,7.73-1.86,10.69-4.71c1.7-1.63,3.09-3.57,4.75-5.51c1.53,2.96,3.08,5.96,4.7,9.11c-7.34,6.71-15.26,11.83-25.79,10.35
			c-4.9-0.69-8.85-3.37-11.56-7.36c-2.59-3.8-4.86-7.89-6.72-12.1c-4.84-10.99-8.35-22.44-11.45-34.26
			C471.15,468.19,473.65,466.94,476.25,465.64z"/>
	</g>
	<g>
		<g>
			<path class="st1" d="M140.23,229.12c3.73-0.52,7.46-1.01,11.18-1.58c2.19-0.33,4.38-0.76,6.55-1.22c0.4-0.09,0.85-0.5,1.05-0.88
				c2.14-4.22,4.22-8.47,6.34-12.7c0.33-0.65,0.66-0.91,1.39-0.21c2.71,2.61,5.49,5.14,8.26,7.68c3.64,3.34,7.3,6.66,10.93,10.02
				c1.54,1.43,3.01,2.94,4.51,4.42c8,7.89,16.11,15.68,23.97,23.71c7.7,7.87,15.23,15.9,22.67,24.01
				c6.05,6.6,12.04,13.29,17.73,20.2c6.9,8.39,13.6,16.96,20.14,25.64c4.46,5.93,8.73,12.03,12.67,18.32
				c3.71,5.94,7.04,12.14,10.23,18.38c3.65,7.16,7.15,14.41,10.36,21.78c3.26,7.46,6.25,15.05,9.07,22.69
				c2.88,7.79,5.62,15.65,8.03,23.59c3.08,10.13,5.89,20.34,8.61,30.58c1.53,5.77,2.64,11.66,3.91,17.5c0.1,0.48,0.01,1-0.25,1.58
				c-0.82-1.96-1.64-3.92-2.46-5.89c-2.78-6.67-5.5-13.36-8.36-20c-3.09-7.18-6.27-14.32-9.49-21.44c-1.99-4.42-4.06-8.8-6.2-13.15
				c-3.89-7.89-7.71-15.82-11.85-23.57c-4.38-8.21-9.03-16.27-13.67-24.33c-2.5-4.35-5-8.74-7.9-12.82
				c-5-7.02-10.11-13.98-15.56-20.65c-5.74-7.02-11.79-13.79-17.96-20.44c-6.86-7.41-13.92-14.64-21.06-21.79
				c-5.99-6-12.14-11.86-18.37-17.62c-6.6-6.1-13.19-12.23-20.11-17.96c-9.04-7.49-18.32-14.72-27.66-21.83
				c-4.95-3.77-10.26-7.07-15.42-10.56c-0.35-0.24-0.84-0.27-1.26-0.4C140.23,229.81,140.23,229.47,140.23,229.12z"/>
			<path class="st1" d="M557.77,230.16c-3.91,2.46-7.93,4.76-11.71,7.4c-5.76,4.04-11.4,8.24-16.98,12.52
				c-3.68,2.83-7.18,5.89-10.73,8.89c-4.72,3.99-9.43,8.01-14.11,12.05c-2.46,2.13-4.88,4.3-7.24,6.53
				c-8.83,8.35-17.74,16.61-26.39,25.13c-5.95,5.86-11.61,12.01-17.25,18.17c-5.08,5.54-9.9,11.32-14.93,16.91
				c-6.53,7.26-12.29,15.13-17.78,23.17c-3.51,5.13-6.68,10.51-9.78,15.91c-4.49,7.81-9.02,15.62-13.09,23.65
				c-5.96,11.75-11.61,23.66-17.24,35.57c-3.8,8.04-7.42,16.17-10.96,24.33c-2.91,6.69-5.59,13.47-8.38,20.21
				c-0.35,0.84-0.7,1.68-1.06,2.52c-0.12,0-0.23,0-0.35,0c2.04-8.93,3.97-17.88,6.15-26.78c1.61-6.58,3.39-13.13,5.4-19.59
				c2.44-7.82,5.13-15.57,7.87-23.3c1.96-5.53,4.06-11.02,6.3-16.44c2.89-6.99,5.84-13.98,9.04-20.83
				c3.31-7.08,6.78-14.1,10.53-20.95c2.82-5.15,6.1-10.05,9.37-14.93c3.33-4.97,6.81-9.85,10.41-14.63
				c4.1-5.44,8.34-10.77,12.63-16.07c3.91-4.84,7.91-9.61,11.95-14.34c2.96-3.46,5.96-6.88,9.09-10.18
				c9.89-10.43,19.73-20.91,29.8-31.17c9.2-9.37,18.63-18.51,28.04-27.67c4.26-4.14,8.71-8.08,13.09-12.08
				c0.74-0.68,1.58-1.24,2.43-1.9c2.31,4.52,4.51,8.88,6.8,13.18c0.31,0.58,1.11,1.12,1.76,1.24c5.5,0.99,11.01,1.88,16.52,2.81
				c0.27,0.05,0.52,0.21,0.79,0.32C557.77,229.93,557.77,230.05,557.77,230.16z"/>
			<path class="st1" d="M341.35,119.52c0.22,1.4,0.53,2.8,0.65,4.21c0.51,5.9,0.96,11.81,1.44,17.71
				c0.45,5.55,0.92,11.11,1.39,16.66c0.46,5.44,0.95,10.87,1.39,16.31c0.49,6.02,0.94,12.04,1.39,18.06
				c0.36,4.87,0.71,9.75,1.04,14.62c0.36,5.22,0.7,10.45,1.05,15.67c0.46,6.83,0.95,13.66,1.38,20.5
				c0.38,6.09,0.72,12.19,1.05,18.28c0.25,4.66,0.47,9.32,0.7,13.99c0.23,4.72,0.51,9.44,0.69,14.16c0.27,7.04,0.49,14.08,0.7,21.12
				c0.14,4.62,0.3,9.24,0.34,13.87c0.13,14.19,0.28,28.38,0.3,42.57c0.01,7.67-0.21,15.33-0.33,23c-0.1,6.07-0.23,12.14-0.33,18.22
				c-0.13,7.83-0.21,15.66-0.37,23.49c-0.11,5.36-0.35,10.72-0.47,16.08c-0.11,5.35-0.12,10.7-0.21,16.05
				c-0.01,0.76-0.22,1.52-0.72,2.3c-0.08-0.23-0.23-0.45-0.24-0.68c-0.14-3.81-0.22-7.62-0.4-11.43c-0.32-6.73-0.67-13.47-1.04-20.2
				c-0.32-5.75-0.64-11.5-1.05-17.24c-0.38-5.38-0.9-10.76-1.33-16.14c-0.27-3.44-0.46-6.89-0.72-10.33
				c-0.45-5.96-0.94-11.92-1.37-17.88c-0.28-3.9-0.43-7.82-0.76-11.72c-0.36-4.34-0.88-8.67-1.3-13.01
				c-0.28-2.98-0.48-5.96-0.76-8.94c-0.55-5.76-1.14-11.52-1.69-17.28c-0.38-4-0.71-8.01-1.1-12.02c-0.42-4.22-0.91-8.43-1.36-12.65
				c-0.38-3.59-0.68-7.19-1.1-10.77c-0.64-5.46-1.36-10.91-2.01-16.37c-0.41-3.47-0.68-6.97-1.13-10.44
				c-0.66-5.04-1.43-10.07-2.17-15.11c-0.54-3.68-1.08-7.35-1.63-11.02c-0.82-5.43-1.62-10.86-2.48-16.28
				c-0.77-4.91-1.54-9.82-2.43-14.71c-0.96-5.21-1.99-10.41-3.12-15.59c-1.43-6.57-2.81-13.15-4.54-19.64
				c-2.49-9.35-5.25-18.63-7.93-27.93c-1.43-4.97-2.92-9.93-4.15-15.36c6.61,2.79,13.22,5.58,19.88,8.39
				c4.62-3.9,9.26-7.81,13.88-11.75c0.18-0.15,0.19-0.5,0.28-0.76C340.88,119.52,341.11,119.52,341.35,119.52z"/>
		</g>
	</g>
</g>
</svg>
