<?xml version="1.0" encoding="utf-8"?>
<!-- Generator: Adobe Illustrator 28.0.0, SVG Export Plug-In . SVG Version: 6.00 Build 0)  -->
<svg version="1.1" id="Layer_1" xmlns="http://www.w3.org/2000/svg" xmlns:xlink="http://www.w3.org/1999/xlink" x="0px" y="0px"
	 viewBox="0 0 433.97 401.54" style="enable-background:new 0 0 433.97 401.54;" xml:space="preserve">
<style type="text/css">
	.st0{fill:#DBA527;}
	.st1{fill:#16244E;}
	.st2{fill:none;}
	.st3{fill:#FFFFFF;}
	.st4{font-family:'OpenSans-Bold';}
	.st5{font-size:34px;}
	.st6{fill:#DBA527;stroke:#214497;stroke-miterlimit:10;}
	.st7{font-family:'Playbill';}
	.st8{font-size:92px;}
</style>
<g>
	<g>
		<path class="st0" d="M270.56,278.2c-47.17-19.98-69.29-74.61-49.3-121.78c9.75-23.01,27.75-40.03,49.1-49.14
			c-6.76-3.44-31.87-14.5-55.22-2.54c-27.28,13.97-10.05,43.55-36.74,60.09c0,0,16.82,2.86,23.04-12.87
			c6.21-15.73,9.23-25.43,13.95-23.59c14.86,5.8-10.98,54.96-42.22,50.77c-31.24-4.18-46.88,29.91-46.88,29.91
			s15.63-21.82,33.62-16.04c14.13,4.54,16.32,10.22,13.37,17.32c-2.62,6.32-38.85,51.76-92.83,27.85
			c-11.96-5.76-16.79-21.85-43.04-19.97c0,0,27.62,13.44,19.42,19.19c-8.2,5.75-32.02-15.54-29.53-35.02
			c2.04-15.93,12.13-29.8,17.67-34.2c0.78-4.29,1.69-8.58,2.32-11.39c-10.01,7.73-57.98,47.76-38.03,87.37
			c14.84,29.46,50.25,34.11,72.8,34.15c22.55,0.04,61.13-1.49,65.69,5.32c4.56,6.81-13.07,19.53-45.75,8.81
			c-32.68-10.71-60.39,4.7-60.39,4.7s31.86-12.72,62.09,2.63c30.23,15.36,65.97,15.42,75.08,0.71c9.11-14.7,43.32-21.79,55.99-12.02
			c12.67,9.77-18.03,21.6-31.46,14.75c0,0,19.21,12.11,41.73,2.94c18.2-7.41,20.79-22.08,41.31-22.92
			C281.03,282.06,275.75,280.4,270.56,278.2z"/>
		<path class="st1" d="M273.06,272.3c43.91,18.6,94.78-1.99,113.38-45.9c18.6-43.91-1.99-94.78-45.9-113.38s-94.78,1.99-113.38,45.9
			C208.55,202.83,229.15,253.69,273.06,272.3z M381.29,224.21c-6.81,16.08-18.26,28.79-32.11,37.3l-18.83-7.98
			c-4.35-1.84-7.56-5.63-8.67-10.22l-3.16-13.1c-1.13-4.68,0.07-9.62,3.23-13.25l11.58-13.35c2.99-3.44,7.38-5.32,11.93-5.11
			l13.32,0.61c4.98,0.23,9.51,2.93,12.08,7.2l10.69,17.75C381.33,224.11,381.32,224.16,381.29,224.21z M330,145.05
			c1.86-4.39,5.71-7.62,10.35-8.7l19.71-4.57c12.73,11.16,21.51,25.96,25.38,42.09l-12.7,14.63c-2.99,3.44-7.38,5.32-11.93,5.11
			l-14.21-0.65c-4.98-0.23-9.51-2.93-12.08-7.2l-8.87-14.74c-2.46-4.08-2.81-9.1-0.95-13.49L330,145.05z M304.38,221.13
			c4.35,1.84,7.56,5.63,8.67,10.22l3.13,12.99c1.13,4.68-0.07,9.62-3.23,13.25l-13.55,15.61c-8.12-0.74-16.26-2.72-24.16-6.06
			c-7.82-3.31-14.85-7.73-20.99-12.98l1.78-20.54c0.41-4.75,3.08-9.02,7.17-11.48l11.52-6.92c4.08-2.45,9.09-2.8,13.48-0.95
			L304.38,221.13z M313.47,112.04l10.43,17.34c2.46,4.08,2.81,9.1,0.95,13.49l-5.29,12.48c-1.86,4.39-5.71,7.62-10.35,8.7L292.2,168
			c-4.82,1.12-9.87-0.23-13.49-3.59l-9.84-9.13c-3.37-3.12-5.1-7.63-4.7-12.2l1.75-20.18C280.12,114.58,296.73,110.67,313.47,112.04
			z M232.15,161.5l20.48-4.74c4.82-1.12,9.87,0.23,13.49,3.59l9.61,8.93c3.37,3.12,5.1,7.63,4.7,12.2l-1.52,17.53
			c-0.41,4.75-3.08,9.02-7.17,11.48l-11.14,6.69c-4.08,2.45-9.09,2.8-13.48,0.95l-19.32-8.18
			C224.36,194.25,225.51,177.4,232.15,161.5z"/>
		<g>
			<path class="st1" d="M309.78,23.24c-97.72-41.4-210.89,4.43-252.29,102.14c-11.94,28.18-16.61,57.64-14.89,86.3
				c2.24,0.04,4.39,0.21,6.45,0.51c-1.81-27.98,2.67-56.78,14.34-84.31c40.02-94.46,149.42-138.76,243.89-98.74
				c94.46,40.02,138.76,149.42,98.74,243.89c-40.02,94.46-149.43,138.76-243.89,98.74c-36.6-15.5-65.66-41.43-85.21-72.86
				c-2.63-0.22-5.19-0.29-7.64-0.24c20.22,34.15,51.09,62.38,90.35,79.01c97.72,41.4,210.9-4.43,252.29-102.14
				C453.32,177.81,407.5,64.63,309.78,23.24z"/>
		</g>
		<path class="st1" d="M306.03,32.09c-92.98-39.39-200.3,4.06-239.69,97.04c-11.58,27.34-16,55.93-14.1,83.66
			c2.41,0.54,4.73,1.26,6.93,2.2c6.9,2.92,11.57,7.22,15.7,11c2.92,2.69,5.45,5.01,8.27,6.39c0.39,0.17,0.78,0.34,1.18,0.51
			c9.5,4.02,18.86,5.93,28.02,5.79c-8.76-27.99-8.02-59.11,4.32-88.23c27.62-65.2,102.86-95.66,168.05-68.04
			c10.95,4.64,20.92,10.63,29.8,17.68c9.58,0.79,19.2,3.07,28.52,7.02c47.17,19.98,69.29,74.61,49.31,121.78
			c-11.1,26.2-32.9,44.66-58.16,52.48c-1.43,1.76-2.92,3.46-4.43,5.13l-1.33,1.45c-35.69,38.22-92.76,52.13-143.71,30.55
			c-3.85-1.63-7.57-3.43-11.17-5.38c-5.63,2.77-12.76,4.38-21.1,4.66c-13.93,0.48-29.69-2.68-44.39-8.91
			c-2.46-1.04-4.89-2.17-7.25-3.37c-1.24-0.63-2.53-1.23-3.81-1.77c-5.41-2.29-10.85-3.65-16.07-4.38
			c19.19,29.91,47.29,54.56,82.48,69.47c92.98,39.39,200.3-4.06,239.69-97.04C442.46,178.79,399.02,71.48,306.03,32.09z"/>
		<g>
			<path class="st1" d="M314.06,288.54c-33.18,29.8-81.9,39.62-125.61,21.1c-2.16-0.91-4.27-1.89-6.35-2.92
				c-1.48,1.69-3.25,3.19-5.28,4.51c2.96,1.54,6,2.98,9.12,4.31c48.5,20.55,102.85,7.98,137.79-27.4L314.06,288.54z"/>
			<path class="st1" d="M122.19,237.71c-8.76-26.4-8.35-55.96,3.32-83.52c25.51-60.21,95.24-88.44,155.45-62.94
				c6.02,2.55,11.71,5.55,17.07,8.93c3.58-0.34,7.18-0.46,10.81-0.38c-7.71-5.68-16.18-10.55-25.37-14.44
				C220,58.47,146.5,88.23,119.61,151.7c-12.13,28.64-12.73,59.31-3.9,86.83C117.89,238.37,120.05,238.11,122.19,237.71z"/>
		</g>
	</g>
	<path id="SVGID_x5F_1_x5F_" class="st2" d="M380.69,166.63c15.49,78.84-35.86,155.31-114.7,170.79
		c-78.84,15.49-155.31-35.86-170.79-114.7S131.06,67.42,209.9,51.93S365.2,87.79,380.69,166.63z"/>
	<text class="st3 st4 st5">	<textPath  xlink:href="#SVGID_x5F_1_x5F_" startOffset="82.382%">
THIRUVEGAPPURA	</textPath>
</text>
	<text transform="matrix(1 0 0 1 249.9424 221.5285)" class="st6 st7 st8">TPL</text>
	<path id="SVGID_x5F_00000170248371532269357990000008570782760291305126_x5F_" class="st2" d="M390.39,281.1
		c46.63-82.35,17.67-186.92-64.68-233.55S138.79,29.88,92.16,112.23s-17.67,186.92,64.68,233.55S343.76,363.45,390.39,281.1z"/>
	<text class="st3 st4 st5">	<textPath  xlink:href="#SVGID_x5F_00000170248371532269357990000008570782760291305126_x5F_" startOffset="11829.1133%">
PREMIER LEAGUE	</textPath>
</text>
</g>
</svg>
